<?xml version="1.0" encoding="UTF-8"?><svg id="Layer_2" xmlns="http://www.w3.org/2000/svg" viewBox="0 0 541.76 168.62"><defs><style>.cls-1{fill:#fff;}</style></defs><g id="Layer_1-2"><polygon class="cls-1" points="61.69 72.13 26.93 72.13 26.93 28.34 70.38 28.34 75.55 2.34 0 2.34 0 166.28 26.93 166.28 26.93 97.66 56.62 97.66 61.69 72.13"/><path class="cls-1" d="M116.16,166.28l-6.56-34.19h-29.51l-7.03,34.19h-26L79.62,2.34h30.45l32.32,163.94h-26.23ZM94.38,47.78l-11.24,59.95h22.48l-11.24-59.95Z"/><path class="cls-1" d="M484.15,166.4c-5-1.48-9.6-3.94-13.82-7.38-2.19-1.72-4.14-3.67-5.85-5.85-1.72-2.18-3.2-4.68-4.45-7.49-1.25-2.81-2.22-5.93-2.93-9.37-.7-3.43-1.05-7.18-1.05-11.24V43.56c0-4.06.35-7.81,1.05-11.24.7-3.43,1.68-6.56,2.93-9.37,1.25-2.81,2.73-5.31,4.45-7.49,1.72-2.19,3.67-4.14,5.85-5.85,4.22-3.43,8.82-5.89,13.82-7.38,5-1.48,9.91-2.23,14.75-2.23s9.76.74,14.75,2.23c5,1.49,9.6,3.94,13.82,7.38,2.18,1.72,4.14,3.67,5.86,5.85,1.72,2.19,3.2,4.68,4.45,7.49,1.25,2.81,2.23,5.94,2.93,9.37.7,3.44,1.05,7.18,1.05,11.24v81.5c0,4.06-.35,7.81-1.05,11.24-.7,3.44-1.68,6.56-2.93,9.37-1.25,2.81-2.73,5.31-4.45,7.49-1.72,2.19-3.67,4.14-5.86,5.85-4.21,3.44-8.82,5.9-13.82,7.38-5,1.48-9.92,2.22-14.75,2.22s-9.76-.74-14.75-2.22ZM505.22,141.1c1.87-.7,3.59-1.83,5.15-3.4,1.41-1.41,2.5-3.16,3.28-5.27.78-2.11,1.17-4.57,1.17-7.38V43.56c0-2.81-.39-5.27-1.17-7.38-.78-2.11-1.87-3.94-3.28-5.5-1.56-1.41-3.28-2.46-5.15-3.16-1.87-.7-3.98-1.05-6.32-1.05s-4.45.35-6.32,1.05c-1.87.7-3.59,1.76-5.15,3.16-1.41,1.56-2.5,3.4-3.28,5.5-.78,2.11-1.17,4.57-1.17,7.38v81.5c0,2.81.39,5.27,1.17,7.38.78,2.11,1.87,3.86,3.28,5.27,1.56,1.56,3.28,2.69,5.15,3.4,1.87.7,3.98,1.05,6.32,1.05s4.45-.35,6.32-1.05Z"/><path class="cls-1" d="M452.04,50.82v-5.85c0-7.96-1.13-14.75-3.4-20.38-2.26-5.62-5.27-10.22-9.02-13.82-3.9-3.75-8.35-6.48-13.35-8.2-5-1.72-10.39-2.58-16.16-2.58-2.34,0-4.96.2-7.85.59-2.89.39-5.85,1.17-8.9,2.34s-6.05,2.81-9.02,4.92c-2.97,2.11-5.7,4.8-8.2,8.08-3.59,5.31-5.78,10.46-6.56,15.46-.78,5-1.17,9.99-1.17,14.99v19.81l19.58,99.32c.65.29,1.3.55,1.97.77,4.68,1.56,8.9,2.34,12.65,2.34h3.28c1.41,0,2.96-.08,4.68-.23,1.72-.16,3.59-.55,5.62-1.17,2.03-.63,4.06-1.56,6.09-2.81,1.87-1.09,3.63-2.5,5.27-4.22,1.64-1.72,3.24-3.82,4.8-6.32l7.03,12.41h12.65v-91.34h-46.14v24.59h19.21v19.44c0,1.72-.08,3.86-.23,6.44-.16,2.58-.7,5.12-1.64,7.61-1.09,2.5-2.66,4.65-4.68,6.44-2.03,1.8-4.92,2.69-8.67,2.69s-6.6-.86-8.55-2.58c-1.95-1.72-3.4-3.75-4.33-6.09-.94-2.19-1.45-4.41-1.52-6.67-.08-2.26-.12-3.86-.12-4.8V47.07c0-1.87.12-3.98.35-6.32.23-2.34.82-4.6,1.76-6.79.94-2.18,2.42-3.98,4.45-5.39,2.03-1.4,4.84-2.11,8.43-2.11s6.13.59,8.08,1.76c1.95,1.17,3.47,2.62,4.57,4.33.94,1.72,1.52,3.44,1.76,5.15.23,1.72.35,3.2.35,4.45v8.67h26.93Z"/><path class="cls-1" d="M351.77,2.34h-30.45l-24.39,122.83,14.06,41.1h3.77l7.03-34.19h29.51l6.56,34.19h26.23L351.77,2.34ZM324.84,107.73l11.24-59.95,11.24,59.95h-22.48Z"/><path class="cls-1" d="M193.05,94.38c2.34-.78,4.68-2.07,7.03-3.86,2.34-1.79,4.49-4.1,6.44-6.91,1.95-2.81,3.55-6.17,4.8-10.07,1.25-3.9,1.87-8.35,1.87-13.35v-14.75c0-7.18-.9-13.23-2.69-18.15-1.8-4.92-4.18-8.94-7.14-12.06-2.97-3.12-6.29-5.58-9.95-7.38-3.67-1.79-7.46-3.08-11.36-3.86-3.9-.78-7.69-1.25-11.36-1.41-3.67-.15-6.91-.23-9.72-.23h-30.91v80.66l16.42,83.28h10.51v-66.04h11.01l21.55,66.04h28.1l-24.59-71.9ZM186.26,56.68c0,3.12-.43,5.85-1.29,8.2-.86,2.34-2.03,4.33-3.51,5.97-1.49,1.64-3.28,2.85-5.39,3.63-2.11.78-4.41,1.17-6.91,1.17h-12.18V26.93h11.01c1.87,0,3.86.2,5.97.59,2.11.39,4.1,1.17,5.97,2.34,1.87,1.17,3.4,2.89,4.57,5.15,1.17,2.27,1.76,5.35,1.76,9.25v12.41Z"/><path class="cls-1" d="M281.3,94.38c2.34-.78,4.68-2.07,7.03-3.86,2.34-1.79,4.49-4.1,6.44-6.91,1.95-2.81,3.55-6.17,4.8-10.07,1.25-3.9,1.87-8.35,1.87-13.35v-14.75c0-7.18-.9-13.23-2.69-18.15-1.8-4.92-4.18-8.94-7.14-12.06-2.97-3.12-6.29-5.58-9.95-7.38-3.67-1.79-7.46-3.08-11.36-3.86-3.9-.78-7.69-1.25-11.36-1.41-3.67-.15-6.91-.23-9.72-.23h-30.91v153.52l3.56,10.42h23.37v-66.04h11.01l21.55,66.04h28.1l-24.59-71.9ZM274.51,56.68c0,3.12-.43,5.85-1.29,8.2-.86,2.34-2.03,4.33-3.51,5.97-1.49,1.64-3.28,2.85-5.39,3.63-2.11.78-4.41,1.17-6.91,1.17h-12.18V26.93h11.01c1.87,0,3.86.2,5.97.59,2.11.39,4.1,1.17,5.97,2.34,1.87,1.17,3.4,2.89,4.57,5.15,1.17,2.27,1.76,5.35,1.76,9.25v12.41Z"/></g></svg>