<?xml version="1.0" encoding="UTF-8"?><svg id="Layer_1" xmlns="http://www.w3.org/2000/svg" viewBox="0 0 1600 900"><defs><style>.cls-1{fill:#fff;}.cls-2{fill:#00643c;}</style></defs><rect class="cls-2" x="-74.52" y="-59.53" width="1746.37" height="1019.09"/><path class="cls-1" d="M1191.31,437.29c0,213.01-172.75,385.44-385.44,385.44s-385.44-172.75-385.44-385.44S593.19,51.85,805.87,51.85s385.44,172.42,385.44,385.44"/><path class="cls-2" d="M844.51,218.43c-3.25-.65-19.48-3.25-38.64-3.25s-35.39,2.6-38.64,3.25c-1.95.32-2.6-1.62-1.3-2.6,1.3-.97,39.94-30.52,39.94-30.52,0,0,38.64,29.55,39.94,30.52,1.3.97.65,2.92-1.3,2.6M777.62,409.37s-1.95.65-2.6,2.6c8.12,6.17,13.64,20.46,30.52,20.46s22.41-14.29,30.52-20.46c-.65-1.95-2.6-2.6-2.6-2.6,0,0-10.72,2.6-27.93,2.6s-27.93-2.6-27.93-2.6M805.55,385.66c-4.55,0-5.84-1.62-8.77-1.62s-9.09,2.6-10.39,4.55c0,.97.65,1.95,1.3,2.92,6.82.97,10.07,4.87,17.86,4.87s11.04-3.9,17.86-4.87c.97-.97,1.3-1.95,1.3-2.92-1.3-2.27-7.14-4.55-10.39-4.55-2.92-.32-3.9,1.62-8.77,1.62M1202.74,459.15c-.67,9.38-1.34,19.09-2.34,28.13-44.88,7.37-60.95-32.49-107.17-30.81,2.68,9.71,5.02,19.76,6.7,29.81,38.18,0,53.25,35.5,95.79,30.14-2.34,10.72-5.02,21.43-8.04,32.15-33.49,3.35-45.21-29.81-84.06-29.14.33,5.69.33,11.05.33,16.75,0,3.01,0,6.36-.33,9.38,33.16-.33,43.87,30.14,75.36,28.8-4.02,10.72-8.37,21.1-13.06,31.48-22.77-1.34-30.48-30.14-64.64-27.8-1,7.37-2.34,14.74-4.02,22.1,29.81-2.01,36.17,25.45,57.61,27.46-5.36,10.05-11.39,19.76-17.42,29.14-12.73-6.7-23.78-27.13-47.56-28.47,2.34-7.7,4.69-15.41,6.36-23.11-21.43,0-45.55-8.37-65.98-26.79,6.7-37.85-51.91-76.03-51.91-103.82,0-29.81,15.07-46.55,15.07-87.08,0-30.14-14.74-62.63-36.51-84.73-4.35-4.35-8.71-7.7-13.73-11.05,20.09,25.12,35.84,54.59,35.84,89.09,0,38.18-17.75,58.28-17.75,93.44s51.58,65.64,51.58,101.81c0,14.4-4.69,28.13-19.43,55.6,23.11,23.11,53.25,35.5,72.68,35.5,6.36,0,9.71-2.01,12.06-6.7,2.01-4.35,3.68-8.71,5.36-13.06,20.76.67,30.48,19.76,41.86,27.46-6.36,8.37-13.06,16.75-20.09,24.78-7.7-8.71-18.09-23.11-33.49-27.13-2.68,5.36-5.69,10.38-8.71,15.74,13.06,3.68,22.1,16.75,29.14,25.45-7.37,7.7-15.41,15.07-23.44,22.44-5.02-7.7-13.06-17.75-21.77-23.44-3.35,4.35-6.7,8.71-10.05,13.06,7.7,5.02,14.07,14.4,18.42,21.77-9.38,7.7-19.09,14.74-29.14,21.43-5.02-40.52-59.95-67.99-45.21-114.88-5.02,8.37-10.72,18.76-10.72,31.15,0,33.83,36.17,60.95,38.85,94.45-7.37,4.35-15.07,8.71-23.11,12.73-1.34-37.18-39.52-77.7-39.52-107.84,0-33.83,44.54-67.99,44.54-108.18s-51.24-67.99-51.24-103.15,21.77-55.26,21.77-100.47c0-33.16-15.74-66.31-39.85-87.75-4.35-3.68-8.37-6.7-13.73-9.38,22.77,27.46,36.17,52.25,36.17,90.09,0,42.53-25.12,65.98-25.12,107.51s50.24,64.64,50.24,103.15-46.89,71.34-46.89,111.19c0,36.17,41.19,72.34,41.86,115.21-9.04,4.02-18.09,7.7-27.46,10.72,5.36-43.2-41.19-88.08-41.19-123.58,0-38.52,48.56-72.01,48.56-113.54s-49.23-60.95-49.23-103.82,30.48-66.65,30.48-113.87c0-36.84-18.09-70-44.88-90.43-.67-.33-1-1-1.67-1.34-2.34-2.01-4.69.33-2.68,2.68,18.76,23.44,28.8,47.22,28.8,82.39,0,43.2-34.83,78.37-34.83,120.23,0,49.57,46.89,63.63,46.89,104.16s-50.24,73.01-50.24,116.22c0,39.85,47.56,84.4,39.19,130.28-9.38,2.34-19.09,4.69-28.8,6.36,9.04-57.27-37.51-98.8-37.51-136.31,0-40.52,51.91-77.03,51.91-116.55s-37.18-49.57-42.2-88.08c-.67-5.36-5.02-9.04-10.72-8.04-7.7,1.34-17.42,6.36-32.49,6.36s-24.78-5.02-32.49-6.36c-5.69-1-10.05,3.01-10.72,8.04-5.02,38.52-42.2,50.57-42.2,88.08,0,39.85,51.91,76.03,51.91,116.55,0,37.51-46.55,78.71-37.51,136.31-9.71-1.67-19.43-4.02-28.8-6.36-8.04-46.22,39.19-90.43,39.19-130.28,0-43.2-50.24-75.69-50.24-116.22s46.89-54.59,46.89-104.16c0-41.86-34.83-77.03-34.83-120.23,0-35.17,10.05-58.95,28.8-82.39,1.67-2.34-.33-4.35-2.68-2.68-.67.33-1,1-1.67,1.34-26.46,20.43-44.88,53.59-44.88,90.43,0,47.22,30.48,71,30.48,113.87s-49.23,62.29-49.23,103.82,48.56,75.02,48.56,113.54c0,35.5-46.55,80.04-41.19,123.58-9.38-3.35-18.42-6.7-27.46-10.72.67-42.87,41.86-79.04,41.86-115.21,0-39.85-46.89-72.34-46.89-111.19s50.24-61.62,50.24-103.15-25.12-64.97-25.12-107.51c0-37.85,13.4-62.63,36.17-90.09-5.02,2.68-9.38,5.69-13.73,9.38-24.11,21.43-39.85,54.93-39.85,87.75,0,45.21,21.77,65.31,21.77,100.47s-51.24,62.96-51.24,103.15,44.54,74.02,44.54,108.18c0,30.48-38.18,71-39.52,107.84-7.7-4.02-15.41-8.04-23.11-12.73,3.01-33.83,39.19-60.62,39.19-94.45,0-12.39-5.69-22.77-10.72-31.15,14.74,46.89-40.19,74.69-45.21,114.88-10.05-6.7-19.76-13.73-29.14-21.43,4.35-7.37,11.05-16.75,18.42-21.77-3.35-4.35-7.03-8.37-10.05-13.06-9.04,5.36-16.75,15.41-21.77,23.44-8.04-7.03-16.08-14.74-23.44-22.44,7.03-8.71,16.08-22.1,29.14-25.45-3.01-5.02-6.03-10.38-8.71-15.74-15.41,4.02-25.79,18.42-33.49,27.13-7.03-8.04-13.73-16.08-20.09-24.78,11.72-7.7,21.1-26.46,42.2-27.46,1.67,4.35,3.68,8.71,5.36,13.06,2.34,5.02,5.69,6.7,12.06,6.7,19.43,0,49.57-12.73,72.68-35.5-15.07-27.46-19.43-41.19-19.43-55.6,0-36.17,51.58-66.65,51.58-101.81s-17.75-55.26-17.75-93.44c0-34.5,15.41-63.97,35.84-89.09-5.02,3.01-9.38,6.7-13.73,11.05-22.1,22.1-36.51,54.93-36.51,84.73,0,40.52,15.07,56.94,15.07,87.08,0,27.8-58.61,65.98-51.91,103.82-20.43,18.76-44.88,26.79-66.31,26.79,2.01,7.7,4.02,15.41,6.36,23.11-24.11,1.34-35.17,21.77-47.56,28.47-6.36-9.38-12.06-19.09-17.42-29.14,21.43-2.34,27.8-29.81,57.61-27.46-1.67-7.37-3.01-14.74-4.02-22.1-34.5-2.34-42.2,26.79-64.64,27.8-4.69-10.38-9.04-20.76-13.06-31.48,31.48,1.34,42.2-29.14,75.02-28.8v-9.38c0-5.69.33-11.05.33-16.75-38.85-1-50.57,32.49-84.06,29.14-3.01-10.38-5.69-21.1-8.04-32.15,42.2,5.36,57.61-30.48,95.79-30.14,1.67-10.05,4.02-20.09,6.7-29.81-46.22-2.01-62.29,38.18-107.17,30.81-1.34-9.38-2.01-18.76-2.68-28.13,52.25,5.69,72.01-37.18,119.56-31.82,4.35-11.39,9.71-22.44,15.74-33.16-59.62-10.38-80.04,39.52-135.64,31.82,4.69-214.35,180.52-386.16,396.21-386.16s391.52,171.81,397.55,386.49c-55.6,7.7-76.03-42.2-135.64-31.82,6.03,10.72,11.05,21.77,15.74,33.16,47.56-5.69,66.98,37.51,119.57,31.48M639.94,296.69c-28.25-11.69-62.67-8.77-92.22,10.07-4.55-27.28-19.48-51.63-40.59-66.24-2.92-1.95-5.84,0-5.84,3.25,4.55,57.8-29.22,107.81-70.79,151.97,42.86,12.99,79.23-42.21,134.43-23.05,20.46-29.55,45.78-55.53,75.01-75.98M805.55,261.94c-35.72,0-65.92,20.13-73.71,46.43-.65,1.95.32,3.25,2.6,2.27,6.49-2.92,13.64-4.22,21.76-4.22,14.61,0,27.6,5.52,35.07,14.61,3.25,11.04,3.57,27.28-.32,36.37-5.84-1.3-8.12-5.84-13.96-5.84s-10.39,4.22-20.46,4.22-11.04-4.87-17.53-4.87c-7.79,0-9.09,7.79-9.09,16.89,0,39.94,36.69,94.82,75.66,94.82s75.66-54.88,75.66-94.82c0-9.09-1.95-16.56-9.74-17.53-3.9,2.92-7.79,5.52-16.89,5.52-10.07,0-12.66-4.22-18.51-4.22-7.14,0-6.49,14.94-14.94,15.91-5.52-13.31-5.84-30.85-1.3-46.11,7.47-9.42,20.46-14.61,35.07-14.61,7.79,0,15.26,1.3,21.76,4.22,2.27.97,3.25-.32,2.6-2.27-7.79-26.63-37.99-46.76-73.71-46.76M862.7,319.09c-8.77,0-18.51,2.6-25,9.74-.65,1.95-.65,4.87.32,6.49,15.59-5.2,29.22-5.52,36.04,1.95,3.57-3.25,4.55-6.17,4.55-9.42,0-5.2-5.52-8.77-15.91-8.77M737.36,337.28c7.47-7.47,23.38-7.14,39.62-1.3.65-8.12-13.96-17.21-28.57-17.21-10.72,0-15.91,3.57-15.91,8.77.32,3.57,1.3,6.49,4.87,9.74M984.14,202.2c-28.25,1.95-52.93,11.69-72.74,27.93,8.44-24.03,19.16-44.81,32.8-64.94-36.04,3.9-65.92,16.89-88,39.62l-17.21-45.14,37.99-33.77-50.98-3.57-20.46-47.41-20.46,47.41-50.98,3.57,37.99,33.77-17.21,45.14c-22.08-22.41-51.95-35.72-88-39.62,13.64,20.13,24.35,41.24,32.8,64.94-19.81-16.24-44.49-25.98-72.74-27.93,16.89,21.76,31.82,45.14,43.19,70.14,1.3,2.92,3.9,3.9,6.82,2.27,38.64-19.16,82.15-30.2,128.59-30.2s89.62,10.72,128.59,30.2c2.92,1.62,5.52.65,6.82-2.27,11.04-25,26.3-48.38,43.19-70.14M1045.84,372.67c55.53-19.16,91.89,35.72,134.76,23.05-41.56-44.16-75.33-94.17-70.79-151.97.32-3.25-2.92-5.2-5.52-3.25-21.11,14.61-36.04,38.97-40.59,66.24-29.22-18.83-63.64-21.43-92.22-10.07,29.22,20.46,54.23,46.43,74.36,75.98"/><g id="Comwlth"><path id="Star7" class="cls-1" d="M214.42,54.58l32.37,103.38,98.87-38.46-58.51,90.45,90.92,55.42-105.33,9.41,14.5,107.57-72.84-78.72-72.84,78.72,14.5-107.57-105.33-9.41,90.92-55.42-58.51-90.45,98.87,38.46,32.37-103.38Z"/></g><g id="_αCrucis"><path id="Star7-2" class="cls-1" d="M1174.4,710.62l13.81,44.1,42.18-16.41-24.96,38.58,38.79,23.64-44.93,4.01,6.19,45.89-31.07-33.58-31.07,33.58,6.19-45.89-44.93-4.01,38.79-23.64-24.96-38.58,42.18,16.41,13.81-44.1Z"/></g><g id="_γCrucis"><path id="Star7-3" class="cls-1" d="M1165.71,62.54l13.81,44.1,42.18-16.41-24.96,38.58,38.79,23.64-44.93,4.01,6.19,45.89-31.07-33.58-31.07,33.58,6.19-45.89-44.93-4.01,38.79-23.64-24.96-38.58,42.18,16.41,13.81-44.1Z"/></g><g id="_δCrucis"><path id="Star7-4" class="cls-1" d="M1397.18,234.37l13.81,44.1,42.18-16.41-24.96,38.58,38.79,23.64-44.93,4.01,6.19,45.89-31.07-33.58-31.07,33.58,6.19-45.89-44.93-4.01,38.79-23.64-24.96-38.58,42.18,16.41,13.81-44.1Z"/></g><g id="_εCrucis"><path id="Star5" class="cls-1" d="M1274.65,440.93l10.91,27.48,28.82,2.17-22.07,19.15,6.9,28.82-24.55-15.64-24.55,15.64,6.9-28.82-22.07-19.15,28.82-2.17,10.91-27.48Z"/></g></svg>